<svg xmlns="http://www.w3.org/2000/svg" xmlns:xlink="http://www.w3.org/1999/xlink" width="31" height="31" viewBox="0 0 31 31">
  <defs>
    <circle id="icon-avada-a" cx="15.2" cy="15.2" r="15.2"/>
    <linearGradient id="icon-avada-c" x1="50%" x2="50%" y1="0%" y2="100%">
      <stop offset="0%" stop-color="#438EAE"/>
      <stop offset="100%" stop-color="#233257"/>
    </linearGradient>
    <linearGradient id="icon-avada-d" x1="0%" x2="100%" y1="50%" y2="50%">
      <stop offset="0%" stop-color="#00D953"/>
      <stop offset="100%" stop-color="#00B089"/>
    </linearGradient>
    <linearGradient id="icon-avada-e" x1="50%" x2="50%" y1="0%" y2="100%">
      <stop offset="0%" stop-color="#00D953"/>
      <stop offset="100%" stop-color="#00B089"/>
    </linearGradient>
  </defs>
  <g fill="none" fill-rule="evenodd">
    <mask id="icon-avada-b" fill="#fff">
      <use xlink:href="#icon-avada-a"/>
    </mask>
    <use fill="#EAF0F6" xlink:href="#icon-avada-a"/>
    <g mask="url(#icon-avada-b)">
      <g transform="translate(4.8 .8)">
        <g transform="translate(10.152)">
          <path stroke="#ADE5A9" stroke-linecap="round" stroke-width=".648" d="M0.0168628529,7.00847624 C-0.127850924,5.16076511 0.671027298,3.96797082 1.94534642,3.10516477"/>
          <g fill-rule="nonzero" transform="translate(.017)">
            <rect width="3.456" height="3.456" fill="#000" opacity="0"/>
            <path fill="url(#icon-avada-c)" d="M1.728,3.10227976 L1.51080978,2.90531071 C0.739414454,2.20506765 0.230144888,1.74297852 0.230144888,1.17753865 C0.230144888,0.71544952 0.591877618,0.353720243 1.0539633,0.353720243 C1.31459018,0.353720243 1.56473175,0.475047264 1.72799654,0.666024215 C1.89126134,0.475047264 2.14140291,0.353720243 2.40202979,0.353720243 C2.86411892,0.353720243 3.2258482,0.715452973 3.2258482,1.17753865 C3.2258482,1.74297852 2.71657864,2.20506765 1.94518331,2.90531417 L1.728,3.10227976 Z"/>
            <g transform="rotate(90 1.728 3.24)">
              <rect width="3.456" height="3.456" fill="#000" opacity="0"/>
              <path fill="url(#icon-avada-c)" d="M1.728,3.10227976 L1.51080978,2.90531071 C0.739414454,2.20506765 0.230144888,1.74297852 0.230144888,1.17753865 C0.230144888,0.71544952 0.591877618,0.353720243 1.0539633,0.353720243 C1.31459018,0.353720243 1.56473175,0.475047264 1.72799654,0.666024215 C1.89126134,0.475047264 2.14140291,0.353720243 2.40202979,0.353720243 C2.86411892,0.353720243 3.2258482,0.715452973 3.2258482,1.17753865 C3.2258482,1.74297852 2.71657864,2.20506765 1.94518331,2.90531417 L1.728,3.10227976 Z"/>
            </g>
          </g>
        </g>
        <path fill="url(#icon-avada-d)" d="M0,8.11922672 C6.91816822,6.4614242 13.6773758,6.55848948 20.304,8.11922672 L20.304,15.552 C20.304,19.1308052 17.4028052,22.032 13.824,22.032 L6.48,22.032 C2.90119482,22.032 4.38277231e-16,19.1308052 0,15.552 L0,8.11922672 L0,8.11922672 Z"/>
        <g transform="translate(11.232 12.312)">
          <circle cx="2.808" cy="2.808" r="2.808" fill="#233257"/>
          <circle cx="2.052" cy="3.132" r="1.62" fill="#142245" stroke="#3B4B73" stroke-width=".648"/>
        </g>
        <g transform="translate(3.672 12.312)">
          <circle cx="2.808" cy="2.808" r="2.808" fill="#233257"/>
          <circle cx="3.564" cy="3.132" r="1.62" fill="#142245" stroke="#3B4B73" stroke-width=".648"/>
        </g>
        <path fill="url(#icon-avada-e)" d="M9.936,23.328 L10.368,23.328 C12.8731636,23.328 14.904,25.3588364 14.904,27.864 L14.904,29.808 L14.904,29.808 L5.4,29.808 L5.4,27.864 C5.4,25.3588364 7.43083637,23.328 9.936,23.328 Z"/>
        <g transform="translate(8.856 24.192)">
          <path stroke="#0D5638" stroke-linecap="round" stroke-width=".5" d="M1.85825391,0.569847656 L0.786058594,0.850183594" opacity=".282"/>
          <g fill="#0F8253">
            <circle cx="2.16" cy=".432" r="1"/>
            <circle cx=".432" cy=".864" r="1"/>
          </g>
          <path stroke="#0D5638" stroke-linecap="round" stroke-width=".5" d="M1.85825391 1.512L.786058594 1.79233594M1.85825391 2.376L.786058594 2.65633594M1.85825391 3.24L.786058594 3.52033594M1.85825391 4.104L.786058594 4.38433594" opacity=".282"/>
        </g>
      </g>
    </g>
  </g>
</svg>
