<svg xmlns="http://www.w3.org/2000/svg" width="16" height="16" viewBox="0 0 16 16">
  <g fill="none">
    <rect width="15.984" height="15.984" x=".016" fill="#000" opacity="0"/>
    <path fill="#A2A9BB" d="M15.7502558,0.0981184624 C15.9464927,0.240836235 16.0267714,0.431126598 15.991092,0.668989549 L13.7076077,14.3698955 C13.6778748,14.5423461 13.5827296,14.676144 13.4221721,14.7712892 C13.3389201,14.8188618 13.2467482,14.8426481 13.1456565,14.8426481 C13.0802442,14.8426481 13.0088853,14.8277817 12.9315798,14.7980488 L8.89088295,13.1478746 L6.73227667,15.7792335 C6.62523834,15.9160046 6.47954729,15.9843902 6.2952035,15.9843902 C6.21789804,15.9843902 6.15248573,15.9724971 6.09896657,15.9487108 C5.98598167,15.9070848 5.89529642,15.8372125 5.82691081,15.7390941 C5.75852521,15.6409756 5.72433241,15.5324506 5.72433243,15.4135192 L5.72433243,12.3004878 L13.431092,2.8543554 L3.895761,11.1052265 L0.372416047,9.66020906 C0.15239282,9.57695703 0.0334613437,9.41342625 0.0156216195,9.16961672 C0.0037284735,8.93175377 0.098873652,8.75632984 0.301057155,8.64334495 L15.1437052,0.0802787434 C15.2329039,0.0267595811 15.328049,0 15.4291408,0 C15.5480722,0 15.6551106,0.0327061541 15.7502558,0.0981184624 Z"/>
  </g>
</svg>
