<svg xmlns="http://www.w3.org/2000/svg" width="41" height="56" viewBox="0 0 41 56">
  <defs>
    <linearGradient id="icon-bottom-gaga-a" x1="50%" x2="50%" y1="0%" y2="100%">
      <stop offset="0%" stop-color="#438EAE"/>
      <stop offset="100%" stop-color="#233257"/>
    </linearGradient>
    <linearGradient id="icon-bottom-gaga-b" x1="0%" x2="100%" y1="50%" y2="50%">
      <stop offset="0%" stop-color="#00D953"/>
      <stop offset="100%" stop-color="#00B089"/>
    </linearGradient>
    <linearGradient id="icon-bottom-gaga-c" x1="50%" x2="50%" y1="0%" y2="100%">
      <stop offset="0%" stop-color="#00D953"/>
      <stop offset="100%" stop-color="#00B089"/>
    </linearGradient>
  </defs>
  <g fill="none" fill-rule="evenodd" transform="translate(-3 -4)">
    <g transform="rotate(-12 40.029 3.471)">
      <g transform="translate(18.8)">
        <path stroke="#ADE5A9" stroke-linecap="round" stroke-width="1.2" d="M0.0312275053,12.9786597 C-0.236760971,9.55697242 1.24264314,7.34809412 3.60249337,5.75030514"/>
        <g fill-rule="nonzero" transform="translate(.031)">
          <rect width="6.4" height="6.4" fill="#000" opacity="0"/>
          <path fill="url(#icon-bottom-gaga-a)" d="M3.2,5.74496251 L2.79779589,5.38020502 C1.36928603,4.08345861 0.426194238,3.22773799 0.426194238,2.18062714 C0.426194238,1.32490652 1.09606966,0.655037488 1.95178389,0.655037488 C2.43442626,0.655037488 2.89765139,0.879717156 3.1999936,1.23337818 C3.50233581,0.879717156 3.96556094,0.655037488 4.44820331,0.655037488 C5.30392393,0.655037488 5.97379296,1.32491291 5.97379296,2.18062714 C5.97379296,3.22773799 5.03070118,4.08345862 3.60219131,5.38021142 L3.2,5.74496251 Z"/>
          <g transform="rotate(90 3.2 6)">
            <rect width="6.4" height="6.4" fill="#000" opacity="0"/>
            <path fill="url(#icon-bottom-gaga-a)" d="M3.2,5.74496251 L2.79779589,5.38020502 C1.36928603,4.08345861 0.426194238,3.22773799 0.426194238,2.18062714 C0.426194238,1.32490652 1.09606966,0.655037488 1.95178389,0.655037488 C2.43442626,0.655037488 2.89765139,0.879717156 3.1999936,1.23337818 C3.50233581,0.879717156 3.96556094,0.655037488 4.44820331,0.655037488 C5.30392393,0.655037488 5.97379296,1.32491291 5.97379296,2.18062714 C5.97379296,3.22773799 5.03070118,4.08345862 3.60219131,5.38021142 L3.2,5.74496251 Z"/>
          </g>
        </g>
      </g>
      <path fill="url(#icon-bottom-gaga-b)" d="M-4.61852778e-14,15.035605 C12.8114226,11.9656004 25.3284737,12.1453509 37.6,15.035605 L37.6,28.8 C37.6,35.427417 32.227417,40.8 25.6,40.8 L12,40.8 C5.372583,40.8 -4.35972965e-14,35.427417 -4.61852778e-14,28.8 L-4.61852778e-14,15.035605 L-4.61852778e-14,15.035605 Z"/>
      <g transform="translate(20.8 21.2)">
        <circle cx="5.2" cy="5.2" r="5.2" fill="#233257"/>
        <circle cx="3.8" cy="5.8" r="3" fill="#142245" stroke="#3B4B73" stroke-width="1.2"/>
      </g>
      <path stroke="#233257" stroke-linecap="round" stroke-linejoin="round" stroke-width="1.2" d="M8.4,23.2 C11.8501574,23.3402678 14.6276546,24.3708184 17.2,26.3550627 C14.0458174,26.1676285 11.0966993,26.7871583 8.4,28.4"/>
    </g>
    <path fill="url(#icon-bottom-gaga-c)" d="M27.4,47.2 L28.2,47.2 C32.8391919,47.2 36.6,50.9608081 36.6,55.6 L36.6,59.2 L36.6,59.2 L19,59.2 L19,55.6 C19,50.9608081 22.7608081,47.2 27.4,47.2 Z"/>
    <g transform="translate(25.4 48.4)">
      <path stroke="#0D5638" stroke-linecap="round" stroke-width=".8" d="M3.44121094,1.05527344 L1.45566406,1.57441406" opacity=".282"/>
      <g fill="#0F8253">
        <circle cx="4" cy=".8" r="1"/>
        <circle cx=".8" cy="1.6" r="1"/>
      </g>
      <path stroke="#0D5638" stroke-linecap="round" stroke-width=".8" d="M3.44121094 2.8L1.45566406 3.31914062M3.44121094 4.4L1.45566406 4.91914063M3.44121094 6L1.45566406 6.51914063M3.44121094 7.6L1.45566406 8.11914063" opacity=".282"/>
    </g>
  </g>
</svg>
