<svg xmlns="http://www.w3.org/2000/svg" width="14" height="21" viewBox="0 0 14 21">
  <g fill="none" transform="translate(-3)">
    <rect width="20.8" height="20.8" fill="#000" opacity="0"/>
    <path fill="#00C174" d="M16.9304687,6.71328125 C16.9304687,3.1078125 14.0075,0.154375 10.4,0.154375 C6.7925,0.154375 3.86953125,3.1078125 3.86953125,6.71328125 C3.86953125,8.14125 4.6271875,9.98359375 5.84390625,11.3425 C7.05046875,12.6892187 7.94625,14.9560937 7.94625,16.7639063 L7.94625,17.4728125 L12.85375,17.4728125 L12.85375,16.77 C12.85375,14.9621875 13.7495312,12.699375 14.95,11.3485937 C16.1707813,9.97546875 16.9304687,7.96859375 16.9304687,6.71328125 Z"/>
    <path fill="#04A766" d="M12.9289063,16.0590625 L8.9903125,10.6153125 L12.114375,4.103125 L16.160625,9.514375 C15.8071875,10.25375 15.3623437,10.8834375 14.8626563,11.448125 C13.9201562,12.6140625 13.4895313,13.6317188 13.08125,15.0515625 L12.9289063,16.0590625 Z"/>
    <path fill="#E1F7EE" d="M10.1460938,7.68421875 L8.46625,7.68421875 C8.2103125,7.68421875 8.0315625,7.42625 8.125,7.1865625 L9.3275,4.07875 C9.38234375,3.93859375 9.5184375,3.84515625 9.66875,3.84515625 L11.8015625,3.84515625 C12.0778125,3.84515625 12.2545312,4.1396875 12.1245313,4.3834375 L10.4690625,7.49125 C10.4040625,7.6090625 10.2801563,7.68421875 10.1460938,7.68421875 Z"/>
    <path fill="#E1F7EE" d="M9.4696875,10.5279688 L12.7196875,7.05453125 C12.9634375,6.79453125 12.7785938,6.37 12.423125,6.37 L10.2903125,6.37 C10.1135938,6.37 9.9571875,6.48375 9.90234375,6.65234375 L8.78515625,10.1257813 C8.65109375,10.5401563 9.173125,10.846875 9.4696875,10.5279688 Z"/>
    <path fill="#455A64" d="M12.0575,20.645625 L8.7425,20.645625 C8.62671875,20.645625 8.52109375,20.5704687 8.458125,20.4465625 L8.0071875,19.54875 L12.7928125,19.54875 L12.341875,20.4465625 C12.2789062,20.5704688 12.1732812,20.645625 12.0575,20.645625 L12.0575,20.645625 Z"/>
    <path fill="#ECEFF1" d="M12.7095312,19.914375 L8.09046875,19.914375 C7.6415625,19.914375 7.2759375,19.5507812 7.2759375,19.0998437 L7.2759375,15.7767187 C7.2759375,15.3278125 7.63953125,14.9621875 8.09046875,14.9621875 L12.7115625,14.9621875 C13.1604687,14.9621875 13.5260937,15.3257812 13.5260937,15.7767187 L13.5260937,19.101875 C13.5240625,19.5507812 13.1604687,19.914375 12.7095312,19.914375 L12.7095312,19.914375 Z"/>
    <path fill="#CFD8DC" d="M10.9646875,16.4246875 L7.2921875,16.4246875 L7.2921875,15.6934375 L10.9646875,15.6934375 C11.1657812,15.6934375 11.3303125,15.8579688 11.3303125,16.0590625 C11.3303125,16.2621875 11.1657812,16.4246875 10.9646875,16.4246875 Z M7.2921875,17.0645313 L13.5078125,17.0645313 L13.5078125,17.7957813 L7.2921875,17.7957813 L7.2921875,17.0645313 Z M13.5078125,19.166875 L10.050625,19.166875 C9.84953125,19.166875 9.685,19.0023438 9.685,18.80125 C9.685,18.6001563 9.84953125,18.435625 10.050625,18.435625 L13.5078125,18.435625 L13.5078125,19.166875 Z"/>
  </g>
</svg>
